<?xml version="1.0" standalone="no"?><!DOCTYPE svg PUBLIC "-//W3C//DTD SVG 1.1//EN" "http://www.w3.org/Graphics/SVG/1.1/DTD/svg11.dtd"><svg t="1758171743379" class="icon" viewBox="0 0 1024 1024" version="1.1" xmlns="http://www.w3.org/2000/svg" p-id="3640" width="32" height="32" xmlns:xlink="http://www.w3.org/1999/xlink"><path d="M51.2 102.4a51.2 51.2 0 1 1-51.2 51.2 51.2 51.2 0 0 1 51.2-51.2z m204.8 0h716.8a51.2 51.2 0 0 1 0 102.4H256a51.2 51.2 0 0 1 0-102.4zM51.2 460.8a51.2 51.2 0 1 1-51.2 51.2 51.2 51.2 0 0 1 51.2-51.2z m204.8 0h716.8a51.2 51.2 0 0 1 0 102.4H256a51.2 51.2 0 0 1 0-102.4z m-204.8 358.4a51.2 51.2 0 1 1-51.2 51.2 51.2 51.2 0 0 1 51.2-51.2z m204.8 0h716.8a51.2 51.2 0 0 1 0 102.4H256a51.2 51.2 0 0 1 0-102.4z" fill="#00D6D6" p-id="3641"></path></svg>