<?xml version="1.0" standalone="no"?><!DOCTYPE svg PUBLIC "-//W3C//DTD SVG 1.1//EN" "http://www.w3.org/Graphics/SVG/1.1/DTD/svg11.dtd"><svg t="1758430479644" class="icon" viewBox="0 0 1024 1024" version="1.1" xmlns="http://www.w3.org/2000/svg" p-id="3956" xmlns:xlink="http://www.w3.org/1999/xlink" width="64" height="64"><path d="M40.09 365.363h368.486c3.789 0 7.424-0.563 10.906-1.536 80.076-10.854 142.028-79.667 142.028-162.662 0-90.522-73.676-164.199-164.198-164.199-52.582 0-102.349 25.447-133.171 68.096a40.125 40.125 0 0 0 9.011 56.013 40.125 40.125 0 0 0 56.013-9.011c15.77-21.811 41.267-34.867 68.147-34.867 46.285 0 83.968 37.683 83.968 83.968s-37.683 83.968-83.968 83.968H40.09c-22.12 0-40.09 17.971-40.09 40.14s17.971 40.09 40.09 40.09z m697.753 294.81c-3.481-0.973-7.117-1.536-10.905-1.536H40.09a40.09 40.09 0 1 0 0 80.179h675.584c46.284 0 83.968 37.683 83.968 83.968s-37.684 83.968-83.968 83.968c-26.88 0-52.378-13.056-68.148-34.867a40.074 40.074 0 0 0-56.012-9.011 40.074 40.074 0 0 0-9.012 56.012c30.823 42.65 80.59 68.096 133.172 68.096 90.521 0 164.198-73.676 164.198-164.198 0-82.944-61.952-151.706-142.029-162.611z m84.377-515.431c-101.017 0-187.033 75.418-200.089 175.463a204.646 204.646 0 0 0-1.69 26.317 40.09 40.09 0 0 0 40.09 40.09 40.09 40.09 0 0 0 40.09-40.09c0-5.325 0.358-10.701 1.024-15.924 7.885-60.21 59.699-105.625 120.525-105.625 67.02 0 121.6 54.528 121.6 121.6s-54.528 121.6-121.6 121.6c-1.536 0-3.021 0.102-4.455 0.256a43.301 43.301 0 0 0-4.454-0.256H40.09C17.97 468.122 0 486.093 0 508.263a40.09 40.09 0 0 0 40.09 40.089h773.17c1.537 0 3.022-0.102 4.455-0.256a43.2 43.2 0 0 0 4.455 0.256c111.257 0 201.779-90.522 201.779-201.78s-90.47-201.83-201.728-201.83z" fill="#66d4ee" p-id="3957"></path></svg>