<?xml version="1.0" standalone="no"?><!DOCTYPE svg PUBLIC "-//W3C//DTD SVG 1.1//EN" "http://www.w3.org/Graphics/SVG/1.1/DTD/svg11.dtd"><svg t="1758444885756" class="icon" viewBox="0 0 1024 1024" version="1.1" xmlns="http://www.w3.org/2000/svg" p-id="7716" xmlns:xlink="http://www.w3.org/1999/xlink" width="64" height="64"><path d="M870.669474 597.692632a26.947368 26.947368 0 0 0-32.87579-19.402106l-107.789473 26.947369-129.077895-73.027369h107.789473a20.210526 20.210526 0 1 0 0-40.421052h-107.789473l128.538947-74.374737 107.789474 26.947368a26.947368 26.947368 0 0 0 6.736842 0 26.947368 26.947368 0 0 0 6.736842-53.894737l-53.894737-14.282105 56.858948-32.875789a26.947368 26.947368 0 1 0-26.947369-46.618948l-56.858947 32.87579 15.090526-53.894737a26.947368 26.947368 0 1 0-52.008421-14.282105l-29.642105 107.789473-129.347369 75.991579 53.894737-93.237894a20.210526 20.210526 0 0 0-35.031579-20.210527l-53.894737 93.237895v-148.48l78.416843-80.842105a26.947368 26.947368 0 0 0-38.534737-37.726316L538.947368 199.68V134.736842a26.947368 26.947368 0 0 0-53.894736 0v64.943158L445.170526 158.989474a26.947368 26.947368 0 0 0-38.534737 37.726315l78.416843 80.842106v148.48l-53.894737-93.237895a20.210526 20.210526 0 0 0-35.031579 20.210526l53.894737 93.237895-128.538948-74.374737-29.642105-107.789473a26.947368 26.947368 0 1 0-52.008421 14.282105l15.090526 53.894737-56.858947-32.606316a26.947368 26.947368 0 0 0-26.947369 46.618947l56.858948 32.87579-53.894737 14.282105a26.947368 26.947368 0 0 0 6.736842 53.894737 26.947368 26.947368 0 0 0 6.736842 0l107.789474-26.947369 128.538947 74.374737h-107.789473a20.210526 20.210526 0 1 0 0 40.421053h107.789473l-128.538947 74.374737-107.789474-26.947369a26.947368 26.947368 0 1 0-13.473684 52.277895l53.894737 14.282105-56.858948 28.564211a26.947368 26.947368 0 0 0 26.947369 46.618947l56.858947-32.875789-15.090526 53.894737a26.947368 26.947368 0 0 0 18.863158 33.145263 26.947368 26.947368 0 0 0 7.275789 0 26.947368 26.947368 0 0 0 26.947369-19.671579l29.642105-107.789474 128.538947-74.374737-53.894736 93.237895a20.210526 20.210526 0 1 0 35.031578 20.210526l53.894737-93.237894v148.48l-78.416842 80.842105a26.947368 26.947368 0 1 0 38.534737 37.726316L485.052632 824.32V889.263158a26.947368 26.947368 0 0 0 53.894736 0v-64.943158l39.882106 40.690526a26.947368 26.947368 0 1 0 38.534737-37.726315l-78.416843-80.842106v-147.402105l53.894737 93.237895a20.210526 20.210526 0 0 0 35.031579-20.210527l-53.894737-93.237894 128.538948 74.374737 29.642105 107.789473a26.947368 26.947368 0 0 0 26.947368 19.671579 26.947368 26.947368 0 0 0 7.27579 0 26.947368 26.947368 0 0 0 18.863158-33.145263l-15.090527-53.894737 56.858948 32.87579a26.947368 26.947368 0 1 0 26.947368-46.618948l-56.858947-32.875789 53.894737-14.282105a26.947368 26.947368 0 0 0 19.671579-35.031579z" fill="#1296db" p-id="7717"></path></svg>