<?xml version="1.0" standalone="no"?><!DOCTYPE svg PUBLIC "-//W3C//DTD SVG 1.1//EN" "http://www.w3.org/Graphics/SVG/1.1/DTD/svg11.dtd"><svg t="1758444993167" class="icon" viewBox="0 0 1024 1024" version="1.1" xmlns="http://www.w3.org/2000/svg" p-id="18853" xmlns:xlink="http://www.w3.org/1999/xlink" width="64" height="64"><path d="M512 1020c-84 0-156-42.4-184-108.8-20-47.2-31.2-138.4 66.4-281.6-76.8 52.8-148 80-210.4 80-65.6 0-119.2-30.4-151.2-85.6-38.4-65.6-38.4-158.4 0-224 32-55.2 85.6-85.6 151.2-85.6 61.6 0 132.8 27.2 210.4 80C296.8 251.2 308 159.2 328 112.8 356 46.4 428 4 512 4s156 42.4 184 108.8c20 47.2 31.2 138.4-66.4 281.6 76.8-52.8 148-80 210.4-80 118.4 0 180 99.2 180 197.6 0 98.4-61.6 198.4-180 198.4-61.6 0-132.8-27.2-210.4-80C727.2 772.8 716 864.8 696 912c-28 65.6-100 108-184 108z m0-484.8c-184.8 196.8-176.8 312-154.4 363.2 23.2 54.4 84 88.8 154.4 88.8 71.2 0 132-35.2 154.4-88.8 22.4-51.2 30.4-165.6-154.4-363.2z m23.2-23.2C681.6 648.8 781.6 678.4 840 678.4c101.6 0 148-86.4 148-166.4s-46.4-165.6-148-165.6c-58.4-0.8-158.4 28.8-304.8 165.6zM184 345.6C115.2 345.6 79.2 384 60.8 416c-32.8 56.8-32.8 136 0 192 18.4 32 54.4 69.6 123.2 69.6 58.4 0 158.4-28.8 304.8-166.4-146.4-136-246.4-165.6-304.8-165.6zM512 36c-71.2 0-132 35.2-154.4 88.8C336 176 327.2 291.2 512 488c184.8-196.8 176.8-312 154.4-363.2C644 71.2 583.2 36 512 36z" fill="#1eac4c" p-id="18854"></path></svg>