<?xml version="1.0" standalone="no"?><!DOCTYPE svg PUBLIC "-//W3C//DTD SVG 1.1//EN" "http://www.w3.org/Graphics/SVG/1.1/DTD/svg11.dtd"><svg t="1758444904597" class="icon" viewBox="0 0 1024 1024" version="1.1" xmlns="http://www.w3.org/2000/svg" p-id="9778" xmlns:xlink="http://www.w3.org/1999/xlink" width="64" height="64"><path d="M666.947368 871.208421A232.016842 232.016842 0 0 1 512 797.103158c-74.644211 73.027368-166.534737 95.124211-226.088421 51.738947s-67.098947-137.701053-20.749474-230.938947c-92.429474-48.235789-142.012632-128.808421-119.107368-199.141053s109.945263-106.442105 213.423158-91.082105C377.263158 224.741053 438.164211 152.791579 512 152.791579s134.736842 71.949474 152.522105 174.888421c103.208421-15.36 190.517895 20.749474 213.423158 91.082105s-26.947368 150.635789-119.107368 199.141053c46.349474 93.507368 39.073684 188.631579-20.749474 230.938947a119.107368 119.107368 0 0 1-71.141053 22.366316zM512 730.812632a26.947368 26.947368 0 0 1 20.48 9.431579c56.858947 66.021053 133.389474 94.585263 174.08 65.212631s37.187368-111.023158-8.084211-185.667368a26.947368 26.947368 0 0 1 12.665264-38.804211c80.842105-33.684211 131.233684-97.549474 115.60421-145.515789s-94.315789-69.524211-178.930526-49.583158a26.947368 26.947368 0 0 1-33.145263-23.983158c-7.275789-87.04-52.277895-155.216842-102.669474-155.216842s-95.393684 68.176842-102.669474 154.947368a26.947368 26.947368 0 0 1-33.145263 23.983158c-84.884211-19.941053-163.570526 1.886316-178.930526 49.583158s35.301053 111.831579 115.60421 145.515789a26.947368 26.947368 0 0 1 12.665264 39.073685c-45.271579 74.374737-48.774737 156.025263-8.084211 185.667368s117.221053 0 174.08-65.212631a26.947368 26.947368 0 0 1 20.48-9.431579z" fill="#ec6788" p-id="9779"></path><path d="M633.532632 482.088421a26.947368 26.947368 0 0 0-33.953685-17.246316L538.947368 485.052632v-64.404211a26.947368 26.947368 0 0 0-53.894736 0V485.052632l-60.631579-19.671579a26.947368 26.947368 0 0 0-16.707369 51.2l60.631579 19.671579L431.157895 587.452632a26.947368 26.947368 0 0 0 43.385263 32.336842L512 567.511579 549.456842 619.789474A26.947368 26.947368 0 0 0 592.842105 587.452632l-37.456842-51.738948 60.631579-19.671579a26.947368 26.947368 0 0 0 17.51579-33.953684z" fill="#ec6788" p-id="9780"></path></svg>