<?xml version="1.0" standalone="no"?><!DOCTYPE svg PUBLIC "-//W3C//DTD SVG 1.1//EN" "http://www.w3.org/Graphics/SVG/1.1/DTD/svg11.dtd"><svg t="1758444848892" class="icon" viewBox="0 0 1024 1024" version="1.1" xmlns="http://www.w3.org/2000/svg" p-id="6265" xmlns:xlink="http://www.w3.org/1999/xlink" width="64" height="64"><path d="M236.058947 625.717895m-33.68421 0a33.684211 33.684211 0 1 0 67.368421 0 33.684211 33.684211 0 1 0-67.368421 0Z" fill="#66d4ee" p-id="6266"></path><path d="M324.985263 772.311579m-33.68421 0a33.684211 33.684211 0 1 0 67.368421 0 33.684211 33.684211 0 1 0-67.368421 0Z" fill="#66d4ee" p-id="6267"></path><path d="M844.261053 625.717895m-33.684211 0a33.684211 33.684211 0 1 0 67.368421 0 33.684211 33.684211 0 1 0-67.368421 0Z" fill="#66d4ee" p-id="6268"></path><path d="M832.404211 464.033684m-33.684211 0a33.684211 33.684211 0 1 0 67.368421 0 33.684211 33.684211 0 1 0-67.368421 0Z" fill="#66d4ee" p-id="6269"></path><path d="M817.852632 766.383158m-33.684211 0a33.684211 33.684211 0 1 0 67.368421 0 33.684211 33.684211 0 1 0-67.368421 0Z" fill="#66d4ee" p-id="6270"></path><path d="M676.917895 676.378947a26.947368 26.947368 0 0 0-26.947369 26.947369c-3.233684 6.197895-35.301053 24.252632-91.082105 24.252631s-87.848421-17.785263-90.812632-23.174736a26.947368 26.947368 0 0 0-53.894736 0c0 50.661053 72.757895 77.069474 144.707368 77.069473s144.707368-26.947368 144.707368-77.069473a26.947368 26.947368 0 0 0-26.677894-28.025264zM676.648421 801.414737a26.947368 26.947368 0 0 0-26.947368 23.174737 107.789474 107.789474 0 0 1-61.170527 14.282105 107.789474 107.789474 0 0 1-61.170526-14.282105 26.947368 26.947368 0 0 0-53.894737 3.772631c0 37.726316 47.157895 64.404211 114.79579 64.404211s114.795789-26.947368 114.795789-64.404211a26.947368 26.947368 0 0 0-26.408421-26.947368zM694.164211 546.223158a26.947368 26.947368 0 0 0-26.947369 26.947368c0 12.665263-48.505263 43.385263-138.509474 43.385263s-138.509474-30.989474-138.509473-43.385263a26.947368 26.947368 0 0 0-53.894737 0c0 63.865263 96.741053 97.28 192.40421 97.28s192.404211-33.414737 192.404211-97.28a26.947368 26.947368 0 0 0-26.947368-26.947368zM727.578947 375.646316a26.947368 26.947368 0 0 0-26.947368 26.947368c0 30.989474-83.806316 76.261053-215.578947 76.261053s-215.578947-45.002105-215.578948-76.261053a26.947368 26.947368 0 1 0-53.894737 0c0 84.345263 138.778947 130.155789 269.473685 130.15579s269.473684-45.541053 269.473684-130.15579a26.947368 26.947368 0 0 0-26.947369-26.947368z" fill="#66d4ee" p-id="6271"></path><path d="M825.667368 236.058947c0-26.947368-14.821053-67.907368-85.962105-102.130526a26.947368 26.947368 0 1 0-23.174737 48.505263c34.762105 16.707368 55.511579 36.648421 55.511579 53.894737 0 39.073684-111.292632 95.663158-285.911579 95.663158S199.949474 275.132632 199.949474 236.058947a66.56 66.56 0 0 1 40.151579-45.541052 26.947368 26.947368 0 1 0-26.947369-46.618948C157.642105 175.966316 146.054737 211.806316 146.054737 236.058947c0 97.28 175.157895 149.557895 339.806316 149.557895s339.806316-52.277895 339.806315-149.557895z" fill="#66d4ee" p-id="6272"></path></svg>