<?xml version="1.0" standalone="no"?><!DOCTYPE svg PUBLIC "-//W3C//DTD SVG 1.1//EN" "http://www.w3.org/Graphics/SVG/1.1/DTD/svg11.dtd"><svg t="1758445131810" class="icon" viewBox="0 0 1024 1024" version="1.1" xmlns="http://www.w3.org/2000/svg" p-id="25597" xmlns:xlink="http://www.w3.org/1999/xlink" width="64" height="64"><path d="M115.87 168.308c7.244-0.015 13.445-4.469 16.035-10.782 0.832-2.017 1.294-4.232 1.294-6.557 0-7.245-4.48-13.444-10.818-15.979l-78.575-31.144c-1.908-0.792-4.123-1.253-6.448-1.253-7.245 0-13.444 4.479-15.982 10.816-0.833 2.024-1.294 4.237-1.294 6.562 0 7.244 4.479 13.442 10.816 15.979l78.58 31.15c2.075 0.867 4.319 1.21 6.392 1.21zM98.94 93.126l35.082 19.877c2.588 1.553 5.531 2.245 8.468 2.245 6.050 0 11.924-3.112 15.037-8.812 1.392-2.434 2.214-5.352 2.214-8.459 0-6.418-3.501-12.019-8.699-14.995l-35.172-19.92c-2.434-1.392-5.352-2.214-8.459-2.214-6.418 0-12.019 3.501-14.995 8.699-1.438 2.519-2.261 5.438-2.261 8.545 0 6.418 3.502 12.018 8.7 14.993zM914.587 828.58c-2.949 7.676 0.884 16.083 8.562 19.037l50.466 19.183c1.626 0.738 3.398 1.035 5.166 1.035 5.903 0 11.514-3.692 13.877-9.596 2.949-7.671-0.884-16.077-8.562-19.037l-50.466-19.178c-7.676-2.96-16.094 0.884-19.043 8.553zM996.63 914.167l-82.637-47.958c-2.137-1.276-4.713-2.031-7.468-2.031-5.416 0-10.152 2.922-12.717 7.274-1.314 2.205-2.068 4.783-2.068 7.537 0 5.416 2.922 10.152 7.274 12.717l82.706 47.989c2.358 1.474 4.868 2.065 7.383 2.065 5.014 0 10.034-2.657 12.835-7.377 1.278-2.137 2.034-4.715 2.034-7.47 0-5.415-2.924-10.149-7.278-12.706zM882.129 224.959c-47.534-41.598-111.765-64.456-181.016-64.456-73.371 0-139.875 25.825-181.473 68.795-41.828-43.201-109.019-69.256-182.388-69.256-69.027 0-133.021 23.089-180.33 64.686-55.318 48.907-84.567 120.905-84.567 207.983 0 92.571 74.056 202.507 220.329 326.151 106.279 89.818 210.96 153.126 215.298 155.873 3.658 2.055 7.772 3.196 11.88 3.196h0.005v-0.005c4.112 0 8.229-1.142 11.885-2.971 4.341-2.734 109.019-66.054 215.298-156.103 146.273-123.876 220.329-233.812 220.329-326.603 0.010-86.842-29.476-158.383-85.25-207.289zM814.946 416.487c-2.977 1.829-6.18 2.515-9.375 2.515-9.212-0.039-17.139-5.503-20.749-13.363-35.248-77.606-98.556-70.971-107.013-67.317-11.425 5.256-25.144 0.23-30.393-11.204-5.261-11.43-0.23-25.144 11.199-30.393 15.773-7.316 47.766-9.601 79.993 2.286 26.292 9.832 63.077 32.908 87.765 87.309 5.261 11.43-0.005 25.139-11.425 30.169z" fill="#d81e06" p-id="25598"></path></svg>