<?xml version="1.0" standalone="no"?><!DOCTYPE svg PUBLIC "-//W3C//DTD SVG 1.1//EN" "http://www.w3.org/Graphics/SVG/1.1/DTD/svg11.dtd"><svg t="1758445063216" class="icon" viewBox="0 0 1024 1024" version="1.1" xmlns="http://www.w3.org/2000/svg" p-id="19969" xmlns:xlink="http://www.w3.org/1999/xlink" width="64" height="64"><path d="M512 64.5C264.9 64.5 64.5 264.9 64.5 512S264.9 959.5 512 959.5 959.5 759.1 959.5 512 759.1 64.5 512 64.5zM322.6 309.4c42.4 0 76.7 34.3 76.7 76.7s-34.3 76.7-76.7 76.7c-42.4 0-76.7-34.3-76.7-76.7s34.4-76.7 76.7-76.7zM512 850.3c-146.9 0-266.1-119.1-266.1-266.1H778c0.1 146.9-119.1 266.1-266 266.1z m189.4-387.5c-42.4 0-76.7-34.3-76.7-76.7s34.3-76.7 76.7-76.7c42.4 0 76.7 34.3 76.7 76.7s-34.4 76.7-76.7 76.7z" p-id="19970" fill="#f4c429"></path></svg>