<?xml version="1.0" standalone="no"?><!DOCTYPE svg PUBLIC "-//W3C//DTD SVG 1.1//EN" "http://www.w3.org/Graphics/SVG/1.1/DTD/svg11.dtd"><svg t="1758445319845" class="icon" viewBox="0 0 1024 1024" version="1.1" xmlns="http://www.w3.org/2000/svg" p-id="39376" xmlns:xlink="http://www.w3.org/1999/xlink" width="64" height="64"><path d="M1000.533333 494.933333l-113.066666-2.133333c-10.666667 0-21.333333-10.666667-21.333334-21.333333s10.666667-21.333333 21.333334-21.333334l113.066666 2.133334c10.666667 0 21.333333 10.666667 21.333334 21.333333 0 12.8-10.666667 21.333333-21.333334 21.333333zM787.2 247.466667c-8.533333 8.533333-21.333333 8.533333-29.866667 0-8.533333-8.533333-8.533333-21.333333 0-29.866667l81.066667-78.933333c8.533333-8.533333 21.333333-8.533333 29.866667 0 8.533333 8.533333 8.533333 21.333333 0 29.866666l-81.066667 78.933334zM518.4 153.6h-10.666667c-8.533333 0-14.933333-6.4-14.933333-14.933333V14.933333c-2.133333-8.533333 6.4-14.933333 14.933333-14.933333h10.666667c8.533333 0 14.933333 6.4 14.933333 14.933333v121.6c0 10.666667-6.4 17.066667-14.933333 17.066667zM226.133333 247.466667L145.066667 170.666667c-8.533333-8.533333-8.533333-21.333333 0-29.866667 8.533333-8.533333 21.333333-8.533333 29.866666 0l81.066667 78.933333c8.533333 8.533333 8.533333 21.333333 0 29.866667-8.533333 6.4-21.333333 6.4-29.866667-2.133333zM155.733333 473.6c0 10.666667-8.533333 21.333333-21.333333 21.333333l-113.066667 2.133334c-10.666667 0-21.333333-8.533333-21.333333-21.333334 0-10.666667 8.533333-21.333333 21.333333-21.333333l113.066667-2.133333c10.666667 0 21.333333 8.533333 21.333333 21.333333zM245.333333 716.8c8.533333-8.533333 21.333333-8.533333 29.866667 0 8.533333 8.533333 8.533333 21.333333 0 29.866667l-76.8 81.066666c-8.533333 8.533333-21.333333 8.533333-29.866667 0-8.533333-8.533333-8.533333-21.333333 0-29.866666l76.8-81.066667zM631.466667 910.933333H392.533333v-27.733333h238.933334v27.733333zM409.6 938.666667h206.933333c8.533333 0 14.933333 6.4 14.933334 14.933333v10.666667c0 8.533333-6.4 14.933333-14.933334 14.933333-2.133333 4.266667-6.4 8.533333-12.8 10.666667 2.133333 0 2.133333 2.133333 2.133334 2.133333 0 2.133333-4.266667 4.266667-14.933334 6.4 0 6.4-10.666667 12.8-27.733333 14.933333v4.266667h-98.133333v-4.266667c-17.066667-4.266667-27.733333-8.533333-27.733334-14.933333-8.533333-2.133333-14.933333-4.266667-14.933333-6.4 0 0 0-2.133333 2.133333-2.133333-6.4-4.266667-10.666667-6.4-12.8-10.666667-8.533333 0-14.933333-6.4-14.933333-14.933333v-10.666667c-4.266667-8.533333 4.266667-14.933333 12.8-14.933333zM789.333333 714.666667l76.8 81.066666c8.533333 8.533333 8.533333 21.333333 0 29.866667-8.533333 8.533333-21.333333 8.533333-29.866666 0l-76.8-81.066667c-8.533333-8.533333-8.533333-21.333333 0-29.866666 8.533333-8.533333 21.333333-8.533333 29.866666 0zM512 224c-142.933333 0-260.266667 113.066667-260.266667 251.733333 0 66.133333 29.866667 160 140.8 273.066667 2.133333 8.533333 14.933333 17.066667 14.933334 21.333333 0 10.666667 4.266667 19.2 14.933333 27.733334v2.133333c-4.266667 0-6.4 2.133333-10.666667 4.266667h-2.133333c-2.133333 0-2.133333 2.133333-4.266667 2.133333 0 0-2.133333 0-2.133333 2.133333l-2.133333 2.133334-4.266667 4.266666v2.133334c0 2.133333-2.133333 2.133333-2.133333 4.266666V853.333333h238.933333v-27.733333c0-10.666667-10.666667-21.333333-27.733333-25.6v-2.133333c8.533333-8.533333 14.933333-17.066667 14.933333-27.733334 0-4.266667 10.666667-8.533333 10.666667-17.066666 121.6-134.4 142.933333-209.066667 142.933333-277.333334-2.133333-138.666667-117.333333-251.733333-262.4-251.733333zM680.533333 490.666667c0 8.533333-8.533333 14.933333-14.933333 14.933333h-21.333333c-2.133333 17.066667-10.666667 34.133333-21.333334 51.2l14.933334 14.933333c4.266667 4.266667 4.266667 14.933333 0 21.333334l-14.933334 14.933333c-4.266667 4.266667-14.933333 4.266667-21.333333 0l-14.933333-14.933333c-14.933333 10.666667-32 17.066667-51.2 21.333333v21.333333c0 8.533333-6.4 14.933333-14.933334 14.933334h-21.333333c-8.533333 0-14.933333-6.4-14.933333-14.933334v-21.333333c-19.2-2.133333-36.266667-10.666667-51.2-21.333333l-14.933334 14.933333c-4.266667 4.266667-14.933333 4.266667-21.333333 0l-14.933333-14.933333c-4.266667-4.266667-4.266667-14.933333 0-21.333334l14.933333-14.933333c-10.666667-14.933333-17.066667-32-21.333333-51.2h-21.333334c-8.533333 0-14.933333-6.4-14.933333-14.933333v-21.333334c0-8.533333 6.4-14.933333 14.933333-14.933333h21.333334c2.133333-19.2 10.666667-36.266667 21.333333-51.2l-14.933333-14.933333c-4.266667-4.266667-4.266667-14.933333 0-21.333334l14.933333-14.933333c4.266667-4.266667 14.933333-4.266667 21.333333 0l14.933334 14.933333c14.933333-10.666667 32-17.066667 51.2-21.333333v-21.333333c0-8.533333 6.4-14.933333 14.933333-14.933334h21.333333c8.533333 0 14.933333 6.4 14.933334 14.933334v21.333333c17.066667 2.133333 34.133333 10.666667 49.066666 21.333333l14.933334-14.933333c4.266667-4.266667 14.933333-4.266667 21.333333 0l14.933333 14.933333c4.266667 4.266667 4.266667 14.933333 0 21.333334l-12.8 17.066666c10.666667 14.933333 17.066667 32 21.333334 49.066667h21.333333c8.533333 0 14.933333 6.4 14.933333 14.933333v21.333334z" p-id="39377" fill="#1aaba8"></path><path d="M460.8 428.8c-27.733333 27.733333-27.733333 74.666667 0 102.4 27.733333 27.733333 74.666667 27.733333 102.4 0 27.733333-27.733333 27.733333-74.666667 0-102.4-27.733333-29.866667-72.533333-29.866667-102.4 0z" p-id="39378" fill="#1aaba8"></path></svg>