<?xml version="1.0" standalone="no"?><!DOCTYPE svg PUBLIC "-//W3C//DTD SVG 1.1//EN" "http://www.w3.org/Graphics/SVG/1.1/DTD/svg11.dtd"><svg t="1758445215693" class="icon" viewBox="0 0 1070 1024" version="1.1" xmlns="http://www.w3.org/2000/svg" p-id="28808" xmlns:xlink="http://www.w3.org/1999/xlink" width="66.875" height="64"><path d="M91.415273 594.757818c-26.717091-60.509091-16.011636-107.892364 30.859636-136.843636a98.722909 98.722909 0 0 1 126.603636 21.410909c33.140364 37.608727 28.16 89.134545-14.149818 136.843636a96.907636 96.907636 0 0 1 29.742546 75.170909h32.395636v-43.566545-69.911273a95.045818 95.045818 0 0 1 28.020364-70.562909 97.652364 97.652364 0 0 1 71.074909-28.718545h336.989091a220.299636 220.299636 0 0 1 156.532363 54.784 214.248727 214.248727 0 0 1 72.238546 147.502545c0 9.355636 4.189091 12.381091 12.939636 12.008727h23.272727c20.945455 0 27.787636 6.795636 27.787637 27.089455V950.411636c0 21.038545-6.842182 28.206545-28.578909 28.206546H903.447273c-20.992 0-27.461818-6.795636-27.461818-27.461818V868.072727H165.701818v77.451637c0 27.834182-5.352727 33.047273-33.559273 33.047272H44.869818c-22.481455 0-29.323636-6.749091-29.323636-28.904727v-229.003636a28.253091 28.253091 0 0 1 13.730909-26.996364c4.561455-3.025455 5.725091-13.963636 5.725091-21.085091a71.354182 71.354182 0 0 1 7.866182-38.539636 72.610909 72.610909 0 0 1 27.182545-28.765091c6.842182-4.002909 13.963636-7.540364 21.364364-10.519273z m827.578182 97.373091a241.896727 241.896727 0 0 0-2.280728-27.089454 169.984 169.984 0 0 0-55.761454-101.096728 174.359273 174.359273 0 0 0-108.171637-43.287272c-119.296-2.606545-238.592 0-357.934545 0a55.249455 55.249455 0 0 0-40.029091 16.430545 53.666909 53.666909 0 0 0-15.266909 40.029091v95.418182c0 16.942545 4.980364 20.712727 20.945454 20.340363h559.290182l-0.791272-0.744727z m63.674181 131.211636v-71.074909c0-15.034182-4.189091-19.176727-19.083636-19.176727H57.856v89.134546l924.811636 1.11709zM170.682182 594.013091c10.938182 0.512 21.736727-2.187636 31.092363-7.773091a53.480727 53.480727 0 0 0 11.729455-83.223273 55.109818 55.109818 0 0 0-59.717818-13.684363c-10.193455 3.863273-18.990545 10.612364-25.274182 19.409454-6.330182 8.797091-9.774545 19.223273-10.053818 30.021818a52.363636 52.363636 0 0 0 14.429091 38.4 53.666909 53.666909 0 0 0 37.794909 16.849455z m48.407273 97.000727c4.189091-28.206545-9.495273-51.525818-32.768-53.061818-23.272727-1.442909-54.504727 0-81.92 0a26.298182 26.298182 0 0 0-19.549091 7.493818 25.6 25.6 0 0 0-7.540364 19.223273v27.834182l141.777455-1.489455zM57.856 934.632727H121.483636v-66.56H57.856v66.56z m860.765091 0h53.76c3.816727 0 9.541818-6.423273 9.914182-10.146909 0.930909-16.151273 0.930909-32.349091 0-48.500363 0-3.397818-4.561455-9.402182-7.261091-9.402182h-56.413091v68.049454zM719.965091 232.075636a76.753455 76.753455 0 0 1 80.802909-11.310545 13.498182 13.498182 0 0 0 11.077818-2.606546c21.736727-19.921455 43.054545-39.842909 63.674182-61.300363 3.397818-3.351273 2.653091-12.381091 0-18.385455a74.24 74.24 0 0 1 4.840727-47.941818 77.172364 77.172364 0 0 1 122.88-23.179636 74.379636 74.379636 0 0 1 7.074909 90.205091 76.008727 76.008727 0 0 1-37.701818 30.021818 77.265455 77.265455 0 0 1-48.314182 1.629091 19.642182 19.642182 0 0 0-25.553454 4.887272c-16.011636 16.523636-33.140364 32.721455-50.688 48.500364a19.874909 19.874909 0 0 0-6.516364 23.691636 71.214545 71.214545 0 0 1-6.004363 60.183273 73.728 73.728 0 0 1-50.362182 34.536727 77.265455 77.265455 0 0 1-59.112728-13.358545 75.496727 75.496727 0 0 1-30.487272-51.665455 187.671273 187.671273 0 0 1 0-28.578909c-20.945455-13.172364-43.101091-27.461818-65.582546-40.96a16.942545 16.942545 0 0 0-14.103272 0 76.986182 76.986182 0 0 1-76.241455 3.351273 20.48 20.48 0 0 0-16.756364 0c-20.945455 14.661818-41.565091 30.068364-61.765818 45.893818a21.783273 21.783273 0 0 0-6.516363 16.896c4.189091 18.711273 0.930909 38.260364-9.076364 54.690909a76.101818 76.101818 0 0 1-44.637091 33.652364c-18.432 4.654545-37.981091 2.327273-54.737455-6.516364a75.496727 75.496727 0 0 1-35.979636-41.239272A71.68 71.68 0 0 1 330.472727 254.370909c7.261091-6.376727 15.825455-11.310545 24.994909-14.429091a68.328727 68.328727 0 0 1 58.740364 3.770182 16.570182 16.570182 0 0 0 21.736727-2.234182c17.92-14.289455 38.074182-28.206545 54.877091-40.96a21.504 21.504 0 0 0 10.705455-25.181091 71.307636 71.307636 0 0 1 6.981818-47.197091c7.68-14.475636 20.154182-25.925818 35.281454-32.581818a74.938182 74.938182 0 0 1 102.586182 43.52c3.351273 10.100364 4.421818 20.805818 3.025455 31.325091a18.152727 18.152727 0 0 0 10.705454 20.666182c18.618182 15.406545 39.237818 28.206545 59.810909 40.96z m82.711273 56.366546a32.023273 32.023273 0 0 0-19.968-30.114909 33.186909 33.186909 0 0 0-35.84 6.749091 32.209455 32.209455 0 0 0-7.261091 35.281454 32.442182 32.442182 0 0 0 30.301091 20.014546 33.047273 33.047273 0 0 0 23.04-9.309091 32.116364 32.116364 0 0 0 9.774545-22.621091z m179.944727-168.401455a33.233455 33.233455 0 0 0-10.053818-22.341818 34.164364 34.164364 0 0 0-22.714182-9.634909 32.023273 32.023273 0 0 0-22.900364 9.309091 31.185455 31.185455 0 0 0-9.122909 22.667636c0 8.378182 3.351273 16.477091 9.309091 22.434909a32.581818 32.581818 0 0 0 22.714182 9.495273 34.210909 34.210909 0 0 0 23.458909-9.262545 33.28 33.28 0 0 0 10.472727-22.667637h-1.163636z m-376.273455 47.010909a31.790545 31.790545 0 0 0-8.145454-25.134545 32.814545 32.814545 0 0 0-24.436364-10.705455 33.186909 33.186909 0 0 0-24.389818 10.705455 32.256 32.256 0 0 0-8.192 25.134545 31.697455 31.697455 0 0 0 9.076364 22.528 32.581818 32.581818 0 0 0 22.574545 9.774546 32.442182 32.442182 0 0 0 23.924364-8.936727 31.557818 31.557818 0 0 0 9.634909-23.412364zM412.392727 312.832a31.744 31.744 0 0 0-9.355636-22.434909 32.581818 32.581818 0 0 0-22.667636-9.495273 31.278545 31.278545 0 0 0-23.133091 8.610909 30.440727 30.440727 0 0 0-9.309091 22.574546 30.813091 30.813091 0 0 0 8.843636 22.807272 31.650909 31.650909 0 0 0 22.807273 9.541819 33.047273 33.047273 0 0 0 22.714182-9.309091 32.116364 32.116364 0 0 0 9.728-22.295273h0.372363z" p-id="28809" fill="#594d9c"></path></svg>