<?xml version="1.0" standalone="no"?><!DOCTYPE svg PUBLIC "-//W3C//DTD SVG 1.1//EN" "http://www.w3.org/Graphics/SVG/1.1/DTD/svg11.dtd"><svg t="1758445262602" class="icon" viewBox="0 0 1213 1024" version="1.1" xmlns="http://www.w3.org/2000/svg" p-id="35360" xmlns:xlink="http://www.w3.org/1999/xlink" width="75.8125" height="64"><path d="M921.64033336 958.66666631c-63.3333331 0-116.6666669-53.33333291-116.6666669-116.66666602 0-23.3333332 6.66666651-46.66666641 20.00000039-66.6666668l-146.6666666-100.00000019 106.6666667-140.0000001 149.99999942 110.00000039c20.00000039-29.99999971 56.66666661-46.66666641 93.33333368-46.66666728 63.3333331 0 116.6666669 53.33333291 116.6666669 116.66666689 0 60.00000029-46.66666641 110.00000039-106.6666667 116.6666669v10.00000019c0 66.6666668-53.33333291 116.6666669-116.66666689 116.66666602z m-150.00000029-296.66666602l166.66666698 113.3333332-43.33333359 26.6666669c-16.6666667 10.00000019-23.3333332 26.6666669-23.3333332 43.33333271 0 26.6666669 23.3333332 50.0000001 50.0000001 50.0000001s50.0000001-23.3333332 50.0000001-50.0000001c0-10.00000019-3.33333369-20.00000039-10.0000002-29.99999971l-13.33333301-20.00000039 33.3333334-46.6666664 26.66666601 13.33333301c6.66666651 3.33333369 13.33333301 6.66666651 23.33333409 6.66666738 26.6666669 0 50.0000001-23.3333332 49.99999922-50.00000009s-23.3333332-50.0000001-49.99999922-50.0000001c-23.3333332 0-43.33333359 16.6666667-50.0000001 36.6666662l-13.33333389 46.66666729-169.9999998-120.00000058-26.66666689 30.00000058z" fill="#e98f36" p-id="35361"></path><path d="M598.30699957 705.33333301c-126.66666709 0-303.3333334-39.9999999-386.66666601-109.99999952-126.66666709-106.6666667-143.33333291-296.6666669-36.66666709-423.3333331 96.66666651-116.6666669 266.66666631-140.0000001 393.33333339-60.00000029 16.6666667 10.00000019 20.00000039 29.99999971 10.0000002 46.66666641s-29.99999971 20.00000039-46.6666664 10.00000019c-100.0000002-63.3333331-230.0000001-43.33333359-303.33333341 46.6666664a233.33333291 233.33333291 0 0 0 29.99999971 330.00000029c73.3333333 60.00000029 259.99999981 106.6666667 383.33333321 93.3333337 43.33333359-3.33333369 73.3333333-16.6666667 86.66666718-30.00000058 36.66666709-46.66666641-16.6666667-223.33333359-110.00000039-353.33333351-10.00000019-13.33333301-6.66666651-36.66666709 6.66666651-46.66666639 13.33333301-10.00000019 36.66666709-6.66666651 46.66666728 6.66666649 86.66666631 119.99999971 183.33333369 343.3333333 106.66666582 433.33333331-23.3333332 29.99999971-69.99999961 50.0000001-133.33333271 53.33333379-13.33333301 0-29.99999971 3.33333369-46.66666729 3.33333281z" fill="#e98f36" p-id="35362"></path><path d="M371.64033317 228.66666699m-33.33333341 1e-8a33.33333339 33.33333339 0 1 0 66.6666668 0 33.33333339 33.33333339 0 1 0-66.6666668 0Z" fill="#e98f36" p-id="35363"></path><path d="M404.97366656 361.99999971m-33.33333339 0a33.33333339 33.33333339 0 1 0 66.66666679 0 33.33333339 33.33333339 0 1 0-66.66666679 0Z" fill="#e98f36" p-id="35364"></path><path d="M504.97366676 262.00000039m-33.3333334 0a33.33333339 33.33333339 0 1 0 66.66666679 0 33.33333339 33.33333339 0 1 0-66.66666679 0Z" fill="#e98f36" p-id="35365"></path></svg>