<?xml version="1.0" standalone="no"?><!DOCTYPE svg PUBLIC "-//W3C//DTD SVG 1.1//EN" "http://www.w3.org/Graphics/SVG/1.1/DTD/svg11.dtd"><svg t="1760023435511" class="icon" viewBox="0 0 1024 1024" version="1.1" xmlns="http://www.w3.org/2000/svg" p-id="5628" xmlns:xlink="http://www.w3.org/1999/xlink" width="64" height="64"><path d="M649.216 887.808c0 75.776-60.416 136.192-136.192 136.192s-136.192-60.416-136.192-136.192h272.384zM605.184 92.16c0-51.2-40.96-92.16-92.16-92.16s-92.16 40.96-92.16 92.16v15.36c-123.904 40.96-225.28 177.152-225.28 335.872v123.904S195.584 747.52 151.552 747.52c-25.6 0-47.104 19.456-47.104 44.032 0 25.6 19.456 44.032 44.032 44.032H874.496c25.6 0 44.032-19.456 44.032-44.032 0-25.6-19.456-44.032-44.032-44.032-44.032 1.024-44.032-180.224-44.032-180.224V440.32c0-158.72-95.232-294.912-228.352-335.872 3.072-3.072 3.072-9.216 3.072-12.288z" fill="#d94a63" p-id="5629"></path></svg>